# AST/ASF file generated using VICON BodyLanguage
# -----------------------------------------------
:version 1.10
:name VICON
:units
  mass 1.0
  length 0.45
  angle deg
:documentation
   .ast/.asf automatically generated from VICON data using
   VICON BodyBuilder and BodyLanguage model FoxedUp or BRILLIANT.MOD
:root
   order TX TY TZ RX RY RZ
   axis XYZ
   position 0 0 0  
   orientation 0 0 0 
:bonedata
  begin
     id 1 
     name lhipjoint
     direction 0.61886 -0.69539 0.365302 
     length 2.20474 
     axis 0 0 0  XYZ
  end
  begin
     id 2 
     name lfemur
     direction 0.34202 -0.939693 0  
     length 6.65149  
     axis 0 0 20  XYZ
    dof rx ry rz
    limits (-160.0 20.0)
           (-70.0 70.0)
           (-60.0 70.0)
  end
  begin
     id 3 
     name ltibia
     direction 0.34202 -0.939693 0   
     length 6.35814   
     axis 0 0 20   XYZ
    dof rx
    limits (-10.0 170.0)
  end
  begin
     id 4 
     name lfoot
     direction 0.101224 -0.278109 0.955201   
     length 2.18766   
     axis -90 7.62852e-016 20   XYZ
    dof rx rz
    limits (-45.0 90.0)
           (-70.0 20.0)
  end
  begin
     id 5 
     name ltoes
     direction 1.53524e-011 -4.21877e-011 1   
     length 1.09206   
     axis -90 7.62852e-016 20   XYZ
    dof rx
    limits (-90.0 20.0)
  end
  begin
     id 6 
     name rhipjoint
     direction -0.600207 -0.708087 0.371972   
     length 2.1652  
     axis 0 0 0  XYZ 
  end
  begin
     id 7 
     name rfemur
     direction -0.34202 -0.939693 0   
     length 6.54691   
     axis 0 0 -20   XYZ
    dof rx ry rz
    limits (-160.0 20.0)
           (-70.0 70.0)
           (-70.0 60.0)
  end
  begin
     id 8 
     name rtibia
     direction -0.34202 -0.939693 0   
     length 6.37474   
     axis 0 0 -20   XYZ
    dof rx
    limits (-10.0 170.0)
 end
 begin
     id 9 
     name rfoot
     direction -0.111266 -0.3057 0.945604   
     length 2.00903  
     axis -90 -7.62852e-016 -20   XYZ
    dof rx rz
    limits (-45.0 90.0)
           (-20.0 70.0)
  end
  begin
     id 10 
     name rtoes
     direction -1.5362e-011 -4.21913e-011 1   
     length 1.00221   
     axis -90 -7.62852e-016 -20   XYZ
    dof rx
    limits (-90.0 20.0)
  end
  begin
     id 11 
     name lowerback
     direction -0.0224561 0.999731 -0.00577314   
     length 2.10409   
     axis 0 0 0   XYZ
    dof rx ry rz
    limits (-20.0 45.0)
           (-30.0 30.0)
           (-30.0 30.0)
  end
  begin
     id 12 
     name upperback
     direction 0.0213126 0.999185 -0.0342817   
     length 2.09783   
     axis 0 0 0   XYZ
    dof rx ry rz
    limits (-20.0 45.0)
           (-30.0 30.0)
           (-30.0 30.0)
  end
  begin
     id 13 
     name thorax
     direction 0.0312356 0.999036 -0.0308451   
     length 2.09788   
     axis 0 0 0   XYZ
    dof rx ry rz
    limits (-20.0 45.0)
           (-30.0 30.0)
           (-30.0 30.0)
  end
  begin
     id 14 
     name lowerneck
     direction -0.0114419 0.996481 0.0830329   
     length 1.38575   
     axis 0 0 0   XYZ
    dof rx ry rz
    limits (-20.0 45.0)
           (-30.0 30.0)
           (-30.0 30.0)
  end
  begin
     id 15 
     name upperneck
     direction -0.0075675 0.996187 -0.0869092   
     length 1.39401   
     axis 0 0 0   XYZ
    dof rx ry rz
    limits (-20.0 45.0)
           (-30.0 30.0)
           (-30.0 30.0)
  end
  begin
     id 16
     name head
     direction -0.00222073 0.999264 -0.0382974  
     length 1.3964  
     axis 0 0 0   XYZ
    dof rx ry rz
    limits (-20.0 45.0)
           (-30.0 30.0)
           (-30.0 30.0)
  end
  begin
     id 17 
     name lclavicle
     direction 0.965962 0.222138 0.132556  
     length 2.81514  
     axis 0 0 0   XYZ
    dof ry rz
    limits (-20.0 10.0)
           (0.0 20.0)
  end
  begin
     id 18 
     name lhumerus
     direction 1 -4.48972e-011 7.03471e-018   
     length 4.47366   
     axis 180 -30 -90   XYZ
    dof rx ry rz
    limits (-60.0 90.0)
           (-90.0 90.0)
           (-90.0 90.0)
  end
  begin
     id 19
     name lradius
     direction 1 -4.48951e-011 -6.22192e-028   
     length 3.19948   
     axis 180 -30 -90   XYZ
    dof rx
    limits (-10.0 170.0)
  end
  begin
     id 20
     name lwrist
     direction 1 -4.48967e-011 -1.24264e-027   
     length 1.59974   
     axis 1.40095e-015 90 90   XYZ
    dof ry
    limits (-180.0 0.0)
 end
  begin
     id 21 
     name lhand
     direction 1 -4.4897e-011 -2.48528e-027   
     length 0.492667   
     axis 1.58582e-015 90 90   XYZ
    dof rx rz
    limits (-90.0 90.0)
           (-45.0 45.0)
  end
  begin
     id 22 
     name lfingers
     direction 1 -4.48996e-011 -4.97056e-027   
     length 0.397201   
     axis 3.17164e-015 90 90   XYZ
    dof rx
    limits (0.0 90.0)
  end
  begin
     id 23
     name lthumb
     direction 0.707107 -6.34981e-011 0.707107   
     length 0.570303   
     axis -90 45 2.85299e-015   XYZ
    dof rx rz
    limits (-45.0 45.0)
           (-45.0 45.0)
  end
  begin
     id 24 
     name rclavicle
     direction -0.961164 0.229034 0.153972   
     length 3.09348  
     axis 0 0 0   XYZ 
    dof ry rz
    limits (-10.0 20.0)
           (-20.0 0.0)
  end
  begin
     id 25 
     name rhumerus
     direction -1 -4.48971e-011 -9.06263e-028  
     length 4.3269   
     axis 180 30 90   XYZ
    dof rx ry rz
    limits (-90.0 60.0)
           (-90.0 90.0)
           (-90.0 90.0)
  end
  begin
     id 26 
     name rradius
     direction -1 -4.48953e-011 1.44659e-027   
     length 3.1896   
     axis 180 30 90   XYZ
    dof rx
    limits (-10.0 170.0)
  end
  begin
     id 27 
     name rwrist
     direction -1 -4.48988e-011 -1.24264e-027   
     length 1.5948   
     axis 1.40095e-015 -90 -90   XYZ
    dof ry
    limits (-180.0 0.0)
  end
  begin
     id 28
     name rhand
     direction -1 -4.49033e-011 -2.48528e-027   
     length 0.464496   
     axis 1.58582e-015 -90 -90   XYZ
    dof rx rz
    limits (-90.0 90.0)
           (-45.0 45.0)
  end
  begin
     id 29
     name rfingers
     direction -1 -4.48905e-011 -4.97056e-027   
     length 0.374489   
     axis 3.17164e-015 -90 -90   XYZ
    dof rx
    limits (0.0 90.0)
  end
  begin
     id 30
     name rthumb
     direction -0.707107 -6.34909e-011 0.707107   
     length 0.537693   
     axis -90 -45 -2.85299e-015   XYZ
    dof rx rz
    limits (-45.0 45.0)
           (-45.0 45.0)
  end
:hierarchy
  begin
    root lhipjoint rhipjoint lowerback
    lhipjoint lfemur
    lfemur ltibia
    ltibia lfoot
    lfoot ltoes
    rhipjoint rfemur
    rfemur rtibia
    rtibia rfoot
    rfoot rtoes
    lowerback upperback
    upperback thorax
    thorax lowerneck lclavicle rclavicle
    lowerneck upperneck
    upperneck head
    lclavicle lhumerus
    lhumerus lradius
    lradius lwrist
    lwrist lhand lthumb
    lhand lfingers
    rclavicle rhumerus
    rhumerus rradius
    rradius rwrist
    rwrist rhand rthumb
    rhand rfingers
  end

#!OML:ASF G:\acrobat\cartwheel_test 2\Patient 1\Session 2\acrobat4.ASF
:FULLY-SPECIFIED
:DEGREES
1666
root 2.75793 14.7797 -14.6401 364.658 5.27783 361.848
lowerback 4.21007 -2.10165 -4.15321
upperback 2.61465 -2.93951 3.81889
thorax 0.756712 -1.56471 6.3969
lowerneck -8.06434 -9.11431 -8.54054
upperneck 20.2399 -11.1427 -0.343532
head 8.07929 -5.95116 0.196196
rclavicle -2.94201e-014 2.46493e-014
rhumerus -39.3985 74.6841 -104.279
rradius 89.8041
rwrist 26.0771
rhand -15.9778 -16.2066
rfingers 7.12502
rthumb 10.2215 314.062
lclavicle -2.94201e-014 2.46493e-014
lhumerus -41.5089 -41.2715 103.895
lradius 97.1473
lwrist 50.8895
lhand -17.371 733.453
lfingers 7.12502
lthumb 8.87739 -676.754
rfemur -29.9875 6.23168 23.3495
rtibia 44.2801
rfoot -20.1481 -13.8562
rtoes -12.3936
lfemur -41.3946 14.6831 -22.5995
ltibia 90.8515
lfoot -16.5934 -2.42216
ltoes -31.9289
1667
root 2.76955 14.7933 -14.5735 364.104 5.73925 362.077
lowerback 4.48781 -1.88612 -3.94584
upperback 2.91404 -2.65271 3.83671
thorax 0.861597 -1.42766 6.29539
lowerneck -9.06717 -7.9719 -7.60066
upperneck 22.5303 -9.44707 -1.20351
head 8.86942 -5.18048 -0.145254
rclavicle 6.95746e-015 -1.66979e-014
rhumerus -37.1741 74.3349 -102.068
rradius 89.6065
rwrist 25.9067
rhand -14.454 -14.1333
rfingers 7.12502
rthumb 11.6913 316.213
lclavicle 6.95746e-015 -1.66979e-014
lhumerus -41.0341 -41.6684 103.897
lradius 96.9207
lwrist 51.4769
lhand -18.0858 733.154
lfingers 7.12502
lthumb 8.18756 -677.025
rfemur -28.777 6.16441 23.097
rtibia 43.9588
rfoot -21.6683 -14.1678
rtoes -12.2868
lfemur -44.3342 14.6262 -22.6876
ltibia 94.0667
lfoot -16.6441 -3.31097
ltoes -32.1906
1668
root 2.78809 14.8132 -14.5008 363.82 5.88914 362.292
lowerback 4.36913 -1.58521 -3.63091
upperback 3.1769 -2.2395 3.78545
thorax 1.12658 -1.22717 6.04073
lowerneck -9.82651 -6.86558 -6.53805
upperneck 24.5104 -7.8617 -1.91302
head 9.56368 -4.44164 -0.447631
rclavicle -2.36554e-014 -1.11319e-014
rhumerus -36.2573 73.6803 -100.932
rradius 89.6066
rwrist 26.1672
rhand -14.0139 -12.6933
rfingers 7.12502
rthumb 12.1157 317.677
lclavicle -2.36554e-014 -1.11319e-014
lhumerus -40.5983 -42.1332 103.87
lradius 96.684
lwrist 52.2019
lhand -19.0052 732.338
lfingers 7.12502
lthumb 7.30016 -677.808
rfemur -27.8489 6.17803 22.8316
rtibia 43.5583
rfoot -22.4397 -14.3169
rtoes -12.4918
lfemur -47.4891 14.8592 -22.7807
ltibia 97.0619
lfoot -16.821 -4.57126
ltoes -30.7291
1669
root 2.80877 14.8401 -14.4268 363.532 6.01358 362.415
lowerback 4.29406 -1.19127 -3.14475
upperback 3.38344 -1.69831 3.72896
thorax 1.29173 -0.953647 5.68397
lowerneck -10.3864 -6.01252 -5.63059
upperneck 26.3339 -6.66958 -2.36455
head 10.238 -3.87141 -0.671855
rclavicle 6.75868e-015 7.95139e-015
rhumerus -35.793 72.7351 -100.105
rradius 89.7565
rwrist 26.3803
rhand -14.3721 -12.2597
rfingers 7.12502
rthumb 11.7703 318.091
lclavicle 6.75868e-015 7.95139e-015
lhumerus -40.4063 -42.7962 104.096
lradius 96.5184
lwrist 52.5628
lhand -19.6267 732.371
lfingers 7.12502
lthumb 6.70021 -677.755
rfemur -26.8369 6.30271 22.6511
rtibia 43.0348
rfoot -22.4628 -14.5678
rtoes -12.7062
lfemur -50.609 15.1132 -22.8158
ltibia 99.8249
lfoot -17.0898 -5.86565
ltoes -28.8616
1670
root 2.83158 14.8693 -14.3555 363.117 6.19245 362.467
lowerback 4.44715 -0.872094 -2.55398
upperback 3.57368 -1.25721 3.66829
thorax 1.33141 -0.723694 5.27219
lowerneck -11.0073 -5.336 -4.91722
upperneck 28.0613 -5.70439 -2.70995
head 10.9435 -3.41112 -0.854525
rclavicle 7.55382e-015 -3.97569e-014
rhumerus -35.0493 71.9557 -99.234
rradius 89.8864
rwrist 26.2189
rhand -14.635 -11.7535
rfingers 7.12502
rthumb 11.5168 318.583
lclavicle 7.55382e-015 -3.97569e-014
lhumerus -40.3505 -43.1691 104.257
lradius 96.3839
lwrist 52.2016
lhand -19.573 732.857
lfingers 7.12502
lthumb 6.75203 -677.271
rfemur -25.6683 6.46623 22.5523
rtibia 42.4233
rfoot -22.5996 -14.9727
rtoes -12.6188
lfemur -53.6378 15.351 -22.8783
ltibia 102.358
lfoot -17.1772 -6.604
ltoes -27.9483
1671
root 2.85389 14.9024 -14.2835 362.699 6.34502 362.583
lowerback 4.61093 -0.73895 -2.17479
upperback 3.73834 -1.07027 3.60478
thorax 1.37925 -0.624692 4.98551
lowerneck -11.4228 -4.61187 -4.08725
upperneck 29.3902 -4.67195 -3.19623
head 11.4809 -2.92364 -1.08153
rclavicle 6.36111e-015 3.02153e-014
rhumerus -34.9946 71.6054 -99.2754
rradius 89.9766
rwrist 26.1445
rhand -14.7565 -11.4995
rfingers 7.12502
rthumb 11.3996 318.83
lclavicle 6.36111e-015 3.02153e-014
lhumerus -40.3585 -42.8135 104.163
lradius 96.2403
lwrist 51.2697
lhand -18.9428 732.7
lfingers 7.12502
lthumb 7.36037 -677.448
rfemur -24.4603 6.693 22.4106
rtibia 41.7589
rfoot -22.703 -15.4138
rtoes -12.3649
lfemur -56.6184 15.7509 -23.0625
ltibia 104.68
lfoot -17.09 -7.09334
ltoes -26.652
1672
root 2.87607 14.9373 -14.2109 362.402 6.49321 362.843
lowerback 4.67786 -0.570625 -1.96194
upperback 3.88692 -0.840986 3.56426
thorax 1.4671 -0.508255 4.81497
lowerneck -11.8297 -4.09036 -3.56933
upperneck 30.448 -3.88452 -3.57244
head 11.9533 -2.56555 -1.24225
rclavicle -2.62396e-014 3.02153e-014
rhumerus -34.7435 71.2127 -98.97
rradius 89.9805
rwrist 26.1252
rhand -15.1771 -12.4675
rfingers 7.12502
rthumb 10.9939 317.84
lclavicle -2.62396e-014 3.02153e-014
lhumerus -40.5114 -42.587 104.356
lradius 96.1882
lwrist 50.6153
lhand -18.5305 732.607
lfingers 7.12502
lthumb 7.75835 -677.556
rfemur -23.3494 6.87057 22.1139
rtibia 41.0729
rfoot -22.7016 -15.7745
rtoes -12.2754
lfemur -59.6634 16.2088 -23.4784
ltibia 106.857
lfoot -16.9899 -7.55934
ltoes -25.29
1673
root 2.89829 14.9681 -14.1369 362.169 6.64838 363.144
lowerback 4.71628 -0.333201 -1.75682
upperback 4.01038 -0.519355 3.52854
thorax 1.53838 -0.344609 4.65073
lowerneck -12.1981 -3.83835 -3.42469
upperneck 31.2522 -3.45706 -3.74069
head 12.3485 -2.38318 -1.30309
rclavicle 0 7.95139e-015
rhumerus -34.2297 70.5471 -98.3117
rradius 89.9358
rwrist 26.0176
rhand -15.0495 -13.0111
rfingers 7.12502
rthumb 11.117 317.303
lclavicle 0 7.95139e-015
lhumerus -40.7836 -42.6173 104.819
lradius 96.1812
lwrist 50.3311
lhand -18.8416 732.707
lfingers 7.12502
lthumb 7.45802 -677.445
rfemur -22.3075 7.03466 21.7757
rtibia 40.3989
rfoot -22.714 -16.0941
rtoes -11.798
lfemur -62.7346 16.6556 -24.0099
ltibia 108.948
lfoot -17.0267 -7.83335
ltoes -25.696
1674
root 2.92053 14.9933 -14.0607 361.826 6.83218 363.353
lowerback 4.84164 -0.239999 -1.66657
upperback 4.09437 -0.39324 3.52738
thorax 1.54251 -0.280324 4.59499
lowerneck -12.167 -3.5562 -3.07392
upperneck 31.6191 -3.03304 -4.02718
head 12.4792 -2.19066 -1.42151
rclavicle 0 2.70347e-014
rhumerus -34.3525 70.0681 -98.4297
rradius 89.8874
rwrist 25.8501
rhand -14.7567 -12.6187
rfingers 7.12502
rthumb 11.3994 317.711
lclavicle 0 2.70347e-014
lhumerus -41.2492 -42.145 105.209
lradius 96.2417
lwrist 50.009
lhand -19.4849 732.886
lfingers 7.12502
lthumb 6.83712 -677.244
rfemur -21.1396 7.36292 21.5665
rtibia 39.7574
rfoot -22.7337 -16.5159
rtoes -10.8115
lfemur -65.6131 17.0148 -24.3373
ltibia 110.989
lfoot -17.2685 -8.41527
ltoes -25.6311
